STARTFONT 2.1
FONT -JDECW-Gothic-Medium-R-Normal--24-240-75-75-M-120-ISO8859-1
SIZE 24 75 75
FONTBOUNDINGBOX 13 26 0 -4

STARTPROPERTIES 26
FONTNAME_REGISTRY ""
FAMILY_NAME "Gothic"
FOUNDRY "JDECW"
WEIGHT_NAME "Medium"
SLANT "R"
SETWIDTH_NAME "Normal"
ADD_STYLE_NAME ""
PIXEL_SIZE 24
POINT_SIZE 240
RESOLUTION_X 75
RESOLUTION_Y 75
SPACING "M"
AVERAGE_WIDTH 120
CHARSET_REGISTRY "ISO8859"
CHARSET_ENCODING "1"
DEVICE_FONT_NAME "Gothic-ISO8859-1"
CHARSET_COLLECTIONS "ISO8859 1"
FULL_NAME "Gothic-ISO8859-1"
COPYRIGHT "Copyright (c) 1990 1991 TYPEBANK, Digital Equipment Corporation Japan"
CAP_HEIGHT 19
X_HEIGHT 13
WEIGHT 10
QUAD_WIDTH 13
DEFAULT_CHAR 32
FONT_DESCENT 4
FONT_ASCENT 22
ENDPROPERTIES

CHARS 223

STARTCHAR C20
ENCODING 32
SWIDTH 1000 0
DWIDTH 13 0
BBX 13 26 0 -4
BITMAP
0000
0000
0000
0000
0000
0000
0000
0000
0000
0000
0000
0000
0000
0000
0000
0000
0000
0000
0000
0000
0000
0000
0000
0000
0000
0000
ENDCHAR

STARTCHAR C21
ENCODING 33
SWIDTH 1000 0
DWIDTH 13 0
BBX 13 26 0 -4
BITMAP
0000
0000
1E00
1E00
1E00
1E00
1E00
1E00
1E00
1E00
1E00
1E00
0C00
0C00
0C00
0C00
0C00
0C00
0000
0000
1E00
1E00
1E00
1E00
0000
0000
ENDCHAR

STARTCHAR C22
ENCODING 34
SWIDTH 1000 0
DWIDTH 13 0
BBX 13 26 0 -4
BITMAP
0000
0000
79E0
79E0
79E0
79E0
1860
1860
30C0
6180
0000
0000
0000
0000
0000
0000
0000
0000
0000
0000
0000
0000
0000
0000
0000
0000
ENDCHAR

STARTCHAR C23
ENCODING 35
SWIDTH 1000 0
DWIDTH 13 0
BBX 13 26 0 -4
BITMAP
0000
0000
0000
1980
1980
1980
1980
7FC0
7FC0
3300
3300
3300
3300
3300
3300
FFC0
FFC0
6600
6600
6600
6600
6600
0000
0000
0000
0000
ENDCHAR

STARTCHAR C24
ENCODING 36
SWIDTH 1000 0
DWIDTH 13 0
BBX 13 26 0 -4
BITMAP
0000
0000
0600
0600
1F80
3FC0
76E0
6660
6660
7600
3E00
1F00
0780
07C0
06E0
0660
6660
6660
76E0
3FC0
1F80
0600
0600
0600
0000
0000
ENDCHAR

STARTCHAR C25
ENCODING 37
SWIDTH 1000 0
DWIDTH 13 0
BBX 13 26 0 -4
BITMAP
0000
0000
0060
3860
7C60
64C0
64C0
6480
6580
6580
7F00
3B00
0600
0600
0DC0
0FE0
0A60
1A60
1A60
3260
3260
63E0
61C0
0000
0000
0000
ENDCHAR

STARTCHAR C26
ENCODING 38
SWIDTH 1000 0
DWIDTH 13 0
BBX 13 26 0 -4
BITMAP
0000
0000
0000
0E00
1F00
1B00
3180
3180
3180
1B00
1B00
0E00
0C60
1E60
3660
3360
6360
61C0
61C0
73E0
3F70
1E30
0000
0000
0000
0000
ENDCHAR

STARTCHAR C27
ENCODING 39
SWIDTH 1000 0
DWIDTH 13 0
BBX 13 26 0 -4
BITMAP
0000
0000
7800
7800
7800
7800
1800
1800
3000
6000
0000
0000
0000
0000
0000
0000
0000
0000
0000
0000
0000
0000
0000
0000
0000
0000
ENDCHAR

STARTCHAR C28
ENCODING 40
SWIDTH 1000 0
DWIDTH 13 0
BBX 13 26 0 -4
BITMAP
0000
0060
00E0
01C0
0180
0380
0300
0300
0700
0600
0600
0600
0600
0600
0600
0600
0600
0700
0300
0300
0380
0180
01C0
00E0
0060
0000
ENDCHAR

STARTCHAR C29
ENCODING 41
SWIDTH 1000 0
DWIDTH 13 0
BBX 13 26 0 -4
BITMAP
0000
6000
7000
3800
1800
1C00
0C00
0C00
0E00
0600
0600
0600
0600
0600
0600
0600
0600
0E00
0C00
0C00
1C00
1800
3800
7000
6000
0000
ENDCHAR

STARTCHAR C2a
ENCODING 42
SWIDTH 1000 0
DWIDTH 13 0
BBX 13 26 0 -4
BITMAP
0000
0000
0000
0000
0000
0000
0000
0000
0600
0E00
64C0
75C0
1D00
1700
75C0
64C0
0E00
0C00
0000
0000
0000
0000
0000
0000
0000
0000
ENDCHAR

STARTCHAR C2b
ENCODING 43
SWIDTH 1000 0
DWIDTH 13 0
BBX 13 26 0 -4
BITMAP
0000
0000
0000
0000
0000
0000
0600
0600
0600
0600
0600
0600
7FE0
7FE0
0600
0600
0600
0600
0600
0600
0000
0000
0000
0000
0000
0000
ENDCHAR

STARTCHAR C2c
ENCODING 44
SWIDTH 1000 0
DWIDTH 13 0
BBX 13 26 0 -4
BITMAP
0000
0000
0000
0000
0000
0000
0000
0000
0000
0000
0000
0000
0000
0000
0000
0000
0000
0000
0000
1E00
1E00
1E00
0600
0C00
1800
0000
ENDCHAR

STARTCHAR C2d
ENCODING 45
SWIDTH 1000 0
DWIDTH 13 0
BBX 13 26 0 -4
BITMAP
0000
0000
0000
0000
0000
0000
0000
0000
0000
0000
0000
0000
7FE0
7FE0
0000
0000
0000
0000
0000
0000
0000
0000
0000
0000
0000
0000
ENDCHAR

STARTCHAR C2e
ENCODING 46
SWIDTH 1000 0
DWIDTH 13 0
BBX 13 26 0 -4
BITMAP
0000
0000
0000
0000
0000
0000
0000
0000
0000
0000
0000
0000
0000
0000
0000
0000
0000
0000
0000
1E00
1E00
1E00
1E00
0000
0000
0000
ENDCHAR

STARTCHAR C2f
ENCODING 47
SWIDTH 1000 0
DWIDTH 13 0
BBX 13 26 0 -4
BITMAP
0000
0000
0000
0060
0060
00C0
00C0
0180
0180
0180
0300
0300
0600
0600
0C00
0C00
0C00
1800
1800
3000
3000
6000
6000
0000
0000
0000
ENDCHAR

STARTCHAR C30
ENCODING 48
SWIDTH 1000 0
DWIDTH 13 0
BBX 13 26 0 -4
BITMAP
0000
0000
0000
0F00
1F80
39C0
30C0
30C0
70E0
6060
6060
6060
6060
6060
6060
6060
70E0
30C0
30C0
39C0
1F80
0F00
0000
0000
0000
0000
ENDCHAR

STARTCHAR C31
ENCODING 49
SWIDTH 1000 0
DWIDTH 13 0
BBX 13 26 0 -4
BITMAP
0000
0000
0000
0600
0E00
3E00
3E00
0600
0600
0600
0600
0600
0600
0600
0600
0600
0600
0600
0600
0600
0600
0600
0000
0000
0000
0000
ENDCHAR

STARTCHAR C32
ENCODING 50
SWIDTH 1000 0
DWIDTH 13 0
BBX 13 26 0 -4
BITMAP
0000
0000
0000
1F00
3F80
31C0
60C0
60C0
60C0
01C0
0180
0380
0700
0600
0E00
1C00
1800
3800
3000
7000
7FE0
7FE0
0000
0000
0000
0000
ENDCHAR

STARTCHAR C33
ENCODING 51
SWIDTH 1000 0
DWIDTH 13 0
BBX 13 26 0 -4
BITMAP
0000
0000
0000
1F00
3F80
3180
60C0
60C0
00C0
0180
0380
1F00
1FC0
01C0
00E0
0060
0060
6060
60E0
71C0
3FC0
1F00
0000
0000
0000
0000
ENDCHAR

STARTCHAR C34
ENCODING 52
SWIDTH 1000 0
DWIDTH 13 0
BBX 13 26 0 -4
BITMAP
0000
0000
0000
0180
0180
0380
0380
0780
0780
0D80
0D80
1980
1980
3180
3180
6180
7FE0
7FE0
0180
0180
0180
0180
0000
0000
0000
0000
ENDCHAR

STARTCHAR C35
ENCODING 53
SWIDTH 1000 0
DWIDTH 13 0
BBX 13 26 0 -4
BITMAP
0000
0000
0000
7FC0
7FC0
6000
6000
6000
6000
6000
6F00
7F80
71C0
00C0
00E0
0060
0060
60E0
60C0
71C0
3F80
1F00
0000
0000
0000
0000
ENDCHAR

STARTCHAR C36
ENCODING 54
SWIDTH 1000 0
DWIDTH 13 0
BBX 13 26 0 -4
BITMAP
0000
0000
0000
0F80
1FC0
38E0
3060
7000
6000
6000
6F00
7FC0
79C0
70E0
6060
6060
6060
6060
70E0
39C0
3FC0
0F00
0000
0000
0000
0000
ENDCHAR

STARTCHAR C37
ENCODING 55
SWIDTH 1000 0
DWIDTH 13 0
BBX 13 26 0 -4
BITMAP
0000
0000
0000
7FE0
7FE0
0060
00C0
00C0
0180
0180
0180
0300
0300
0300
0600
0600
0600
0600
0C00
0C00
0C00
0C00
0000
0000
0000
0000
ENDCHAR

STARTCHAR C38
ENCODING 56
SWIDTH 1000 0
DWIDTH 13 0
BBX 13 26 0 -4
BITMAP
0000
0000
0000
1F00
3F80
71C0
60C0
60C0
60C0
71C0
3B80
1F00
3F80
71C0
60C0
E0E0
C060
C060
E0E0
71C0
7FC0
1F00
0000
0000
0000
0000
ENDCHAR

STARTCHAR C39
ENCODING 57
SWIDTH 1000 0
DWIDTH 13 0
BBX 13 26 0 -4
BITMAP
0000
0000
0000
0F00
3FC0
39C0
70E0
6060
6060
6060
6060
70E0
39E0
3FE0
0F60
0060
0060
00E0
60C0
71C0
3F80
1F00
0000
0000
0000
0000
ENDCHAR

STARTCHAR C3a
ENCODING 58
SWIDTH 1000 0
DWIDTH 13 0
BBX 13 26 0 -4
BITMAP
0000
0000
0000
0000
0000
0000
0000
0000
0000
1E00
1E00
1E00
1E00
0000
0000
0000
0000
0000
1E00
1E00
1E00
1E00
0000
0000
0000
0000
ENDCHAR

STARTCHAR C3b
ENCODING 59
SWIDTH 1000 0
DWIDTH 13 0
BBX 13 26 0 -4
BITMAP
0000
0000
0000
0000
0000
0000
0000
0000
0000
1E00
1E00
1E00
1E00
0000
0000
0000
0000
0000
1E00
1E00
1E00
0600
0C00
1800
0000
0000
ENDCHAR

STARTCHAR C3c
ENCODING 60
SWIDTH 1000 0
DWIDTH 13 0
BBX 13 26 0 -4
BITMAP
0000
0000
0000
0000
00E0
01C0
0380
0700
0E00
1C00
3800
7000
E000
E000
7000
3800
1C00
0E00
0700
0380
01C0
00E0
0000
0000
0000
0000
ENDCHAR

STARTCHAR C3d
ENCODING 61
SWIDTH 1000 0
DWIDTH 13 0
BBX 13 26 0 -4
BITMAP
0000
0000
0000
0000
0000
0000
0000
0000
0000
7FC0
7FC0
0000
0000
0000
0000
7FC0
7FC0
0000
0000
0000
0000
0000
0000
0000
0000
0000
ENDCHAR

STARTCHAR C3e
ENCODING 62
SWIDTH 1000 0
DWIDTH 13 0
BBX 13 26 0 -4
BITMAP
0000
0000
0000
0000
7000
3800
1C00
0E00
0700
0380
01C0
00E0
0070
0070
00E0
01C0
0380
0700
0E00
1C00
3800
7000
0000
0000
0000
0000
ENDCHAR

STARTCHAR C3f
ENCODING 63
SWIDTH 1000 0
DWIDTH 13 0
BBX 13 26 0 -4
BITMAP
0000
0000
1F00
3F80
71C0
60C0
60C0
60C0
00C0
01C0
0380
0700
0600
0E00
0C00
0C00
0C00
0C00
0000
0000
1E00
1E00
1E00
1E00
0000
0000
ENDCHAR

STARTCHAR C40
ENCODING 64
SWIDTH 1000 0
DWIDTH 13 0
BBX 13 26 0 -4
BITMAP
0000
0000
0000
0E00
3F80
71C0
60C0
C460
CE60
DA60
D360
D360
D360
D360
D260
DFC0
CD80
C000
60C0
71C0
3F80
0E00
0000
0000
0000
0000
ENDCHAR

STARTCHAR C41
ENCODING 65
SWIDTH 1000 0
DWIDTH 13 0
BBX 13 26 0 -4
BITMAP
0000
0000
0000
0C00
0C00
0C00
1E00
1E00
1200
1200
3300
3300
3300
3300
7F80
7F80
6180
6180
6180
C0C0
C0C0
C0C0
0000
0000
0000
0000
ENDCHAR

STARTCHAR C42
ENCODING 66
SWIDTH 1000 0
DWIDTH 13 0
BBX 13 26 0 -4
BITMAP
0000
0000
0000
7F00
7F80
61C0
60C0
60C0
60C0
61C0
6180
7F00
7F80
61C0
60C0
60C0
60C0
60C0
60C0
61C0
7F80
7F00
0000
0000
0000
0000
ENDCHAR

STARTCHAR C43
ENCODING 67
SWIDTH 1000 0
DWIDTH 13 0
BBX 13 26 0 -4
BITMAP
0000
0000
0000
1F00
3F80
71C0
60C0
E060
C060
C000
C000
C000
C000
C000
C000
C060
C060
E060
60C0
71C0
3F80
1F00
0000
0000
0000
0000
ENDCHAR

STARTCHAR C44
ENCODING 68
SWIDTH 1000 0
DWIDTH 13 0
BBX 13 26 0 -4
BITMAP
0000
0000
0000
7E00
7F80
6380
61C0
60C0
60C0
60E0
6060
6060
6060
6060
6060
60E0
60C0
60C0
61C0
6380
7F80
7E00
0000
0000
0000
0000
ENDCHAR

STARTCHAR C45
ENCODING 69
SWIDTH 1000 0
DWIDTH 13 0
BBX 13 26 0 -4
BITMAP
0000
0000
0000
7FC0
7FC0
6000
6000
6000
6000
6000
6000
7F80
7F80
6000
6000
6000
6000
6000
6000
6000
7FC0
7FC0
0000
0000
0000
0000
ENDCHAR

STARTCHAR C46
ENCODING 70
SWIDTH 1000 0
DWIDTH 13 0
BBX 13 26 0 -4
BITMAP
0000
0000
0000
7FE0
7FE0
6000
6000
6000
6000
6000
6000
7FC0
7FC0
6000
6000
6000
6000
6000
6000
6000
6000
6000
0000
0000
0000
0000
ENDCHAR

STARTCHAR C47
ENCODING 71
SWIDTH 1000 0
DWIDTH 13 0
BBX 13 26 0 -4
BITMAP
0000
0000
0000
1F00
3F80
71C0
60C0
E060
C060
C000
C000
C000
C000
C3E0
C3E0
C060
C060
E060
60E0
71E0
3FE0
1E60
0000
0000
0000
0000
ENDCHAR

STARTCHAR C48
ENCODING 72
SWIDTH 1000 0
DWIDTH 13 0
BBX 13 26 0 -4
BITMAP
0000
0000
0000
6060
6060
6060
6060
6060
6060
6060
6060
7FE0
7FE0
6060
6060
6060
6060
6060
6060
6060
6060
6060
0000
0000
0000
0000
ENDCHAR

STARTCHAR C49
ENCODING 73
SWIDTH 1000 0
DWIDTH 13 0
BBX 13 26 0 -4
BITMAP
0000
0000
0000
0600
0600
0600
0600
0600
0600
0600
0600
0600
0600
0600
0600
0600
0600
0600
0600
0600
0600
0600
0000
0000
0000
0000
ENDCHAR

STARTCHAR C4a
ENCODING 74
SWIDTH 1000 0
DWIDTH 13 0
BBX 13 26 0 -4
BITMAP
0000
0000
0000
00C0
00C0
00C0
00C0
00C0
00C0
00C0
00C0
00C0
00C0
00C0
00C0
00C0
00C0
60C0
60C0
71C0
3F80
1F00
0000
0000
0000
0000
ENDCHAR

STARTCHAR C4b
ENCODING 75
SWIDTH 1000 0
DWIDTH 13 0
BBX 13 26 0 -4
BITMAP
0000
0000
0000
6060
6060
60C0
6180
6180
6300
6600
6600
6C00
7E00
7600
6300
6300
6180
6180
60C0
60C0
6060
6060
0000
0000
0000
0000
ENDCHAR

STARTCHAR C4c
ENCODING 76
SWIDTH 1000 0
DWIDTH 13 0
BBX 13 26 0 -4
BITMAP
0000
0000
0000
6000
6000
6000
6000
6000
6000
6000
6000
6000
6000
6000
6000
6000
6000
6000
6000
6000
7FE0
7FE0
0000
0000
0000
0000
ENDCHAR

STARTCHAR C4d
ENCODING 77
SWIDTH 1000 0
DWIDTH 13 0
BBX 13 26 0 -4
BITMAP
0000
0000
0000
6060
6060
6060
70E0
70E0
70E0
79E0
79E0
6960
6F60
6F60
6F60
6660
6660
6660
6660
6660
6660
6060
0000
0000
0000
0000
ENDCHAR

STARTCHAR C4e
ENCODING 78
SWIDTH 1000 0
DWIDTH 13 0
BBX 13 26 0 -4
BITMAP
0000
0000
0000
6060
6060
7060
7060
7860
7860
6C60
6C60
6660
6660
6660
6360
6360
61E0
61E0
60E0
60E0
6060
6060
0000
0000
0000
0000
ENDCHAR

STARTCHAR C4f
ENCODING 79
SWIDTH 1000 0
DWIDTH 13 0
BBX 13 26 0 -4
BITMAP
0000
0000
0000
0F00
1F80
39C0
30C0
70E0
6060
6060
6060
6060
6060
6060
6060
6060
6060
70E0
30C0
39C0
1F80
0F00
0000
0000
0000
0000
ENDCHAR

STARTCHAR C50
ENCODING 80
SWIDTH 1000 0
DWIDTH 13 0
BBX 13 26 0 -4
BITMAP
0000
0000
0000
7F00
7F80
61C0
60C0
60C0
60C0
60C0
61C0
7F80
7F00
6000
6000
6000
6000
6000
6000
6000
6000
6000
0000
0000
0000
0000
ENDCHAR

STARTCHAR C51
ENCODING 81
SWIDTH 1000 0
DWIDTH 13 0
BBX 13 26 0 -4
BITMAP
0000
0000
0000
0F00
1F80
39C0
30C0
70E0
6060
6060
6060
6060
6060
6060
6060
6060
6060
6160
3340
39C0
1F80
0FC0
00E0
0040
0000
0000
ENDCHAR

STARTCHAR C52
ENCODING 82
SWIDTH 1000 0
DWIDTH 13 0
BBX 13 26 0 -4
BITMAP
0000
0000
0000
7F00
7F80
61C0
60C0
60C0
60C0
60C0
61C0
7F80
7F00
6600
6600
6300
6300
6180
6180
60C0
60C0
60E0
0000
0000
0000
0000
ENDCHAR

STARTCHAR C53
ENCODING 83
SWIDTH 1000 0
DWIDTH 13 0
BBX 13 26 0 -4
BITMAP
0000
0000
0000
1F00
3F80
71C0
60C0
60C0
6000
7000
3800
1E00
0F00
0380
01C0
00E0
0060
6060
6060
70E0
3FC0
1F80
0000
0000
0000
0000
ENDCHAR

STARTCHAR C54
ENCODING 84
SWIDTH 1000 0
DWIDTH 13 0
BBX 13 26 0 -4
BITMAP
0000
0000
0000
7FE0
7FE0
0600
0600
0600
0600
0600
0600
0600
0600
0600
0600
0600
0600
0600
0600
0600
0600
0600
0000
0000
0000
0000
ENDCHAR

STARTCHAR C55
ENCODING 85
SWIDTH 1000 0
DWIDTH 13 0
BBX 13 26 0 -4
BITMAP
0000
0000
0000
60C0
60C0
60C0
60C0
60C0
60C0
60C0
60C0
60C0
60C0
60C0
60C0
60C0
60C0
60C0
60C0
71C0
3F80
1F00
0000
0000
0000
0000
ENDCHAR

STARTCHAR C56
ENCODING 86
SWIDTH 1000 0
DWIDTH 13 0
BBX 13 26 0 -4
BITMAP
0000
0000
0000
6060
6060
6060
6060
30C0
30C0
30C0
30C0
30C0
1980
1980
1980
1980
0F00
0F00
0F00
0600
0600
0600
0000
0000
0000
0000
ENDCHAR

STARTCHAR C57
ENCODING 87
SWIDTH 1000 0
DWIDTH 13 0
BBX 13 26 0 -4
BITMAP
0000
0000
0000
6060
6060
6060
6060
6060
6060
6660
6660
6660
6660
6660
6F60
6960
6960
6960
79E0
70E0
30C0
30C0
0000
0000
0000
0000
ENDCHAR

STARTCHAR C58
ENCODING 88
SWIDTH 1000 0
DWIDTH 13 0
BBX 13 26 0 -4
BITMAP
0000
0000
0000
6060
6060
30E0
30C0
18C0
1980
0D80
0F00
0700
0600
0F00
0F00
1980
1980
1980
30C0
30C0
6060
6060
0000
0000
0000
0000
ENDCHAR

STARTCHAR C59
ENCODING 89
SWIDTH 1000 0
DWIDTH 13 0
BBX 13 26 0 -4
BITMAP
0000
0000
0000
C0C0
C0C0
6180
6180
6180
3300
3300
3300
1E00
1E00
0C00
0C00
0C00
0C00
0C00
0C00
0C00
0C00
0C00
0000
0000
0000
0000
ENDCHAR

STARTCHAR C5a
ENCODING 90
SWIDTH 1000 0
DWIDTH 13 0
BBX 13 26 0 -4
BITMAP
0000
0000
0000
3FE0
3FE0
0060
00C0
00C0
0180
0180
0300
0300
0600
0600
0C00
0C00
1800
1800
3000
3000
7FE0
7FE0
0000
0000
0000
0000
ENDCHAR

STARTCHAR C5b
ENCODING 91
SWIDTH 1000 0
DWIDTH 13 0
BBX 13 26 0 -4
BITMAP
0000
3FC0
3FC0
3000
3000
3000
3000
3000
3000
3000
3000
3000
3000
3000
3000
3000
3000
3000
3000
3000
3000
3000
3000
3FC0
3FC0
0000
ENDCHAR

STARTCHAR C5c
ENCODING 92
SWIDTH 1000 0
DWIDTH 13 0
BBX 13 26 0 -4
BITMAP
0000
0000
0000
6000
6000
3000
3000
1800
1800
0C00
0C00
0C00
0600
0600
0300
0300
0180
0180
0180
00C0
00C0
0060
0060
0000
0000
0000
ENDCHAR

STARTCHAR C5d
ENCODING 93
SWIDTH 1000 0
DWIDTH 13 0
BBX 13 26 0 -4
BITMAP
0000
3FC0
3FC0
00C0
00C0
00C0
00C0
00C0
00C0
00C0
00C0
00C0
00C0
00C0
00C0
00C0
00C0
00C0
00C0
00C0
00C0
00C0
00C0
3FC0
3FC0
0000
ENDCHAR

STARTCHAR C5e
ENCODING 94
SWIDTH 1000 0
DWIDTH 13 0
BBX 13 26 0 -4
BITMAP
0000
0600
1F80
0000
0000
0000
0000
0000
0000
0000
0000
0000
0000
0000
0000
0000
0000
0000
0000
0000
0000
0000
0000
0000
0000
0000
ENDCHAR

STARTCHAR C5f
ENCODING 95
SWIDTH 1000 0
DWIDTH 13 0
BBX 13 26 0 -4
BITMAP
0000
0000
0000
0000
0000
0000
0000
0000
0000
0000
0000
0000
0000
0000
0000
0000
0000
0000
0000
0000
0000
0000
0000
0000
FFF0
0000
ENDCHAR

STARTCHAR C60
ENCODING 96
SWIDTH 1000 0
DWIDTH 13 0
BBX 13 26 0 -4
BITMAP
0000
0000
7800
7800
7800
7800
6000
6000
3000
1800
0000
0000
0000
0000
0000
0000
0000
0000
0000
0000
0000
0000
0000
0000
0000
0000
ENDCHAR

STARTCHAR C61
ENCODING 97
SWIDTH 1000 0
DWIDTH 13 0
BBX 13 26 0 -4
BITMAP
0000
0000
0000
0000
0000
0000
0000
0000
0000
0F00
3F80
71C0
60C0
00C0
07C0
1FC0
38C0
30C0
60C0
61C0
7FF0
3E70
0000
0000
0000
0000
ENDCHAR

STARTCHAR C62
ENCODING 98
SWIDTH 1000 0
DWIDTH 13 0
BBX 13 26 0 -4
BITMAP
0000
0000
0000
6000
6000
6000
6000
6000
6000
6F00
7FC0
70C0
6060
6060
6060
6060
6060
6060
6060
70C0
7FC0
6F00
0000
0000
0000
0000
ENDCHAR

STARTCHAR C63
ENCODING 99
SWIDTH 1000 0
DWIDTH 13 0
BBX 13 26 0 -4
BITMAP
0000
0000
0000
0000
0000
0000
0000
0000
0000
0F00
3FC0
30E0
6060
6000
6000
6000
6000
6000
6060
30E0
3FC0
0F00
0000
0000
0000
0000
ENDCHAR

STARTCHAR C64
ENCODING 100
SWIDTH 1000 0
DWIDTH 13 0
BBX 13 26 0 -4
BITMAP
0000
0000
0000
0060
0060
0060
0060
0060
0060
0F60
3FE0
30E0
6060
6060
6060
6060
6060
6060
6060
30E0
3FE0
0F60
0000
0000
0000
0000
ENDCHAR

STARTCHAR C65
ENCODING 101
SWIDTH 1000 0
DWIDTH 13 0
BBX 13 26 0 -4
BITMAP
0000
0000
0000
0000
0000
0000
0000
0000
0000
0F00
3FC0
30C0
6060
6060
7FE0
7FE0
6000
6000
6060
30E0
3FC0
0F00
0000
0000
0000
0000
ENDCHAR

STARTCHAR C66
ENCODING 102
SWIDTH 1000 0
DWIDTH 13 0
BBX 13 26 0 -4
BITMAP
0000
0000
0000
03C0
07C0
0E00
0C00
0C00
0C00
7FC0
7FC0
0C00
0C00
0C00
0C00
0C00
0C00
0C00
0C00
0C00
0C00
0C00
0000
0000
0000
0000
ENDCHAR

STARTCHAR C67
ENCODING 103
SWIDTH 1000 0
DWIDTH 13 0
BBX 13 26 0 -4
BITMAP
0000
0000
0000
0000
0000
0000
0000
0000
0000
0F60
3FE0
30E0
6060
6060
6060
6060
30E0
3FE0
0F60
0060
0060
6060
70E0
3FC0
1F80
0000
ENDCHAR

STARTCHAR C68
ENCODING 104
SWIDTH 1000 0
DWIDTH 13 0
BBX 13 26 0 -4
BITMAP
0000
0000
0000
6000
6000
6000
6000
6000
6000
6F00
7F80
71C0
60C0
60C0
60C0
60C0
60C0
60C0
60C0
60C0
60C0
60C0
0000
0000
0000
0000
ENDCHAR

STARTCHAR C69
ENCODING 105
SWIDTH 1000 0
DWIDTH 13 0
BBX 13 26 0 -4
BITMAP
0000
0000
0000
0E00
0E00
0E00
0000
0000
0000
0600
0600
0600
0600
0600
0600
0600
0600
0600
0600
0600
0600
0600
0000
0000
0000
0000
ENDCHAR

STARTCHAR C6a
ENCODING 106
SWIDTH 1000 0
DWIDTH 13 0
BBX 13 26 0 -4
BITMAP
0000
0000
0000
0700
0700
0700
0000
0000
0000
0300
0300
0300
0300
0300
0300
0300
0300
0300
0300
0300
0300
0300
0700
3E00
3C00
0000
ENDCHAR

STARTCHAR C6b
ENCODING 107
SWIDTH 1000 0
DWIDTH 13 0
BBX 13 26 0 -4
BITMAP
0000
0000
0000
0000
6000
6000
6000
6000
6000
61C0
6380
6700
6E00
7C00
7E00
7600
6700
6300
6380
6180
61C0
60E0
0000
0000
0000
0000
ENDCHAR

STARTCHAR C6c
ENCODING 108
SWIDTH 1000 0
DWIDTH 13 0
BBX 13 26 0 -4
BITMAP
0000
0000
0000
0C00
0C00
0C00
0C00
0C00
0C00
0C00
0C00
0C00
0C00
0C00
0C00
0C00
0C00
0C00
0C00
0C00
0C00
0C00
0000
0000
0000
0000
ENDCHAR

STARTCHAR C6d
ENCODING 109
SWIDTH 1000 0
DWIDTH 13 0
BBX 13 26 0 -4
BITMAP
0000
0000
0000
0000
0000
0000
0000
0000
0000
5DC0
7FE0
6660
6660
6660
6660
6660
6660
6660
6660
6660
6660
6660
0000
0000
0000
0000
ENDCHAR

STARTCHAR C6e
ENCODING 110
SWIDTH 1000 0
DWIDTH 13 0
BBX 13 26 0 -4
BITMAP
0000
0000
0000
0000
0000
0000
0000
0000
0000
6F00
7F80
71C0
60C0
60C0
60C0
60C0
60C0
60C0
60C0
60C0
60C0
60C0
0000
0000
0000
0000
ENDCHAR

STARTCHAR C6f
ENCODING 111
SWIDTH 1000 0
DWIDTH 13 0
BBX 13 26 0 -4
BITMAP
0000
0000
0000
0000
0000
0000
0000
0000
0000
0F00
3FC0
30C0
6060
6060
6060
6060
6060
6060
6060
30C0
3FC0
0F00
0000
0000
0000
0000
ENDCHAR

STARTCHAR C70
ENCODING 112
SWIDTH 1000 0
DWIDTH 13 0
BBX 13 26 0 -4
BITMAP
0000
0000
0000
0000
0000
0000
0000
0000
0000
6F00
7FC0
70C0
6060
6060
6060
6060
6060
70C0
7FC0
6F00
6000
6000
6000
6000
6000
0000
ENDCHAR

STARTCHAR C71
ENCODING 113
SWIDTH 1000 0
DWIDTH 13 0
BBX 13 26 0 -4
BITMAP
0000
0000
0000
0000
0000
0000
0000
0000
0000
0F60
3FE0
30E0
6060
6060
6060
6060
6060
30E0
3FE0
0F60
0060
0060
0060
0060
0060
0000
ENDCHAR

STARTCHAR C72
ENCODING 114
SWIDTH 1000 0
DWIDTH 13 0
BBX 13 26 0 -4
BITMAP
0000
0000
0000
0000
0000
0000
0000
0000
0000
31E0
37E0
3E00
3800
3000
3000
3000
3000
3000
3000
3000
3000
3000
0000
0000
0000
0000
ENDCHAR

STARTCHAR C73
ENCODING 115
SWIDTH 1000 0
DWIDTH 13 0
BBX 13 26 0 -4
BITMAP
0000
0000
0000
0000
0000
0000
0000
0000
0000
1E00
3F80
71C0
60C0
6000
7800
3F00
07C0
00E0
6060
70E0
3FC0
0F00
0000
0000
0000
0000
ENDCHAR

STARTCHAR C74
ENCODING 116
SWIDTH 1000 0
DWIDTH 13 0
BBX 13 26 0 -4
BITMAP
0000
0000
0000
0000
0000
1800
1800
1800
1800
7F80
7F80
1800
1800
1800
1800
1800
1800
1800
1800
1800
1F80
0F80
0000
0000
0000
0000
ENDCHAR

STARTCHAR C75
ENCODING 117
SWIDTH 1000 0
DWIDTH 13 0
BBX 13 26 0 -4
BITMAP
0000
0000
0000
0000
0000
0000
0000
0000
0000
60C0
60C0
60C0
60C0
60C0
60C0
60C0
60C0
60C0
60C0
71C0
3FC0
1EC0
0000
0000
0000
0000
ENDCHAR

STARTCHAR C76
ENCODING 118
SWIDTH 1000 0
DWIDTH 13 0
BBX 13 26 0 -4
BITMAP
0000
0000
0000
0000
0000
0000
0000
0000
0000
6060
6060
6060
30C0
30C0
30C0
1980
1980
1980
0F00
0F00
0600
0600
0000
0000
0000
0000
ENDCHAR

STARTCHAR C77
ENCODING 119
SWIDTH 1000 0
DWIDTH 13 0
BBX 13 26 0 -4
BITMAP
0000
0000
0000
0000
0000
0000
0000
0000
0000
6060
6060
6060
6060
6660
6660
6660
6F60
6960
6960
79E0
30C0
30C0
0000
0000
0000
0000
ENDCHAR

STARTCHAR C78
ENCODING 120
SWIDTH 1000 0
DWIDTH 13 0
BBX 13 26 0 -4
BITMAP
0000
0000
0000
0000
0000
0000
0000
0000
0000
6060
70E0
30C0
1980
1F80
0F00
0600
0F00
1F80
1980
30C0
70E0
6060
0000
0000
0000
0000
ENDCHAR

STARTCHAR C79
ENCODING 121
SWIDTH 1000 0
DWIDTH 13 0
BBX 13 26 0 -4
BITMAP
0000
0000
0000
0000
0000
0000
0000
0000
0000
6060
6060
30C0
30C0
30C0
1980
1980
1980
0F00
0F00
0600
0600
0C00
1C00
7800
7000
0000
ENDCHAR

STARTCHAR C7a
ENCODING 122
SWIDTH 1000 0
DWIDTH 13 0
BBX 13 26 0 -4
BITMAP
0000
0000
0000
0000
0000
0000
0000
0000
0000
7FC0
7FC0
01C0
0380
0300
0700
0E00
0C00
1800
3800
7000
7FE0
7FE0
0000
0000
0000
0000
ENDCHAR

STARTCHAR C7b
ENCODING 123
SWIDTH 1000 0
DWIDTH 13 0
BBX 13 26 0 -4
BITMAP
0000
01C0
03C0
0700
0600
0600
0600
0600
0600
0600
0E00
0C00
3C00
3C00
0C00
0E00
0600
0600
0600
0600
0600
0600
0700
03C0
01C0
0000
ENDCHAR

STARTCHAR C7c
ENCODING 124
SWIDTH 1000 0
DWIDTH 13 0
BBX 13 26 0 -4
BITMAP
0000
0600
0600
0600
0600
0600
0600
0600
0600
0600
0600
0600
0600
0600
0600
0600
0600
0600
0600
0600
0600
0600
0600
0600
0600
0000
ENDCHAR

STARTCHAR C7d
ENCODING 125
SWIDTH 1000 0
DWIDTH 13 0
BBX 13 26 0 -4
BITMAP
0000
3800
3C00
0E00
0600
0600
0600
0600
0600
0600
0700
0300
03C0
03C0
0300
0700
0600
0600
0600
0600
0600
0600
0E00
3C00
3800
0000
ENDCHAR

STARTCHAR C7e
ENCODING 126
SWIDTH 1000 0
DWIDTH 13 0
BBX 13 26 0 -4
BITMAP
0000
1C60
36C0
6380
0000
0000
0000
0000
0000
0000
0000
0000
0000
0000
0000
0000
0000
0000
0000
0000
0000
0000
0000
0000
0000
0000
ENDCHAR

STARTCHAR C80
ENCODING 128
SWIDTH 1000 0
DWIDTH 13 0
BBX 13 26 0 -4
BITMAP
0000
0000
0000
0000
0000
0000
0000
0000
0000
0000
0000
0000
0000
0000
0000
0000
0000
0000
0000
0000
0000
0000
0000
0000
0000
0000
ENDCHAR

STARTCHAR C81
ENCODING 129
SWIDTH 1000 0
DWIDTH 13 0
BBX 13 26 0 -4
BITMAP
0000
0000
0000
0000
0000
0000
0000
0000
0000
0000
0000
0000
0000
0000
0000
0000
0000
0000
0000
0000
0000
0000
0000
0000
0000
0000
ENDCHAR

STARTCHAR C82
ENCODING 130
SWIDTH 1000 0
DWIDTH 13 0
BBX 13 26 0 -4
BITMAP
0000
0000
0000
0000
0000
0000
0000
0000
0000
0000
0000
0000
0000
0000
0000
0000
0000
0000
0000
0000
0000
0000
0000
0000
0000
0000
ENDCHAR

STARTCHAR C83
ENCODING 131
SWIDTH 1000 0
DWIDTH 13 0
BBX 13 26 0 -4
BITMAP
0000
0000
0000
0000
0000
0000
0000
0000
0000
0000
0000
0000
0000
0000
0000
0000
0000
0000
0000
0000
0000
0000
0000
0000
0000
0000
ENDCHAR

STARTCHAR C84
ENCODING 132
SWIDTH 1000 0
DWIDTH 13 0
BBX 13 26 0 -4
BITMAP
0000
0000
0000
0000
0000
0000
0000
0000
0000
0000
0000
0000
0000
0000
0000
0000
0000
0000
0000
0000
0000
0000
0000
0000
0000
0000
ENDCHAR

STARTCHAR C85
ENCODING 133
SWIDTH 1000 0
DWIDTH 13 0
BBX 13 26 0 -4
BITMAP
0000
0000
0000
0000
0000
0000
0000
0000
0000
0000
0000
0000
0000
0000
0000
0000
0000
0000
0000
0000
0000
0000
0000
0000
0000
0000
ENDCHAR

STARTCHAR C86
ENCODING 134
SWIDTH 1000 0
DWIDTH 13 0
BBX 13 26 0 -4
BITMAP
0000
0000
0000
0000
0000
0000
0000
0000
0000
0000
0000
0000
0000
0000
0000
0000
0000
0000
0000
0000
0000
0000
0000
0000
0000
0000
ENDCHAR

STARTCHAR C87
ENCODING 135
SWIDTH 1000 0
DWIDTH 13 0
BBX 13 26 0 -4
BITMAP
0000
0000
0000
0000
0000
0000
0000
0000
0000
0000
0000
0000
0000
0000
0000
0000
0000
0000
0000
0000
0000
0000
0000
0000
0000
0000
ENDCHAR

STARTCHAR C88
ENCODING 136
SWIDTH 1000 0
DWIDTH 13 0
BBX 13 26 0 -4
BITMAP
0000
0000
0000
0000
0000
0000
0000
0000
0000
0000
0000
0000
0000
0000
0000
0000
0000
0000
0000
0000
0000
0000
0000
0000
0000
0000
ENDCHAR

STARTCHAR C89
ENCODING 137
SWIDTH 1000 0
DWIDTH 13 0
BBX 13 26 0 -4
BITMAP
0000
0000
0000
0000
0000
0000
0000
0000
0000
0000
0000
0000
0000
0000
0000
0000
0000
0000
0000
0000
0000
0000
0000
0000
0000
0000
ENDCHAR

STARTCHAR C8a
ENCODING 138
SWIDTH 1000 0
DWIDTH 13 0
BBX 13 26 0 -4
BITMAP
0000
0000
0000
0000
0000
0000
0000
0000
0000
0000
0000
0000
0000
0000
0000
0000
0000
0000
0000
0000
0000
0000
0000
0000
0000
0000
ENDCHAR

STARTCHAR C8b
ENCODING 139
SWIDTH 1000 0
DWIDTH 13 0
BBX 13 26 0 -4
BITMAP
0000
0000
0000
0000
0000
0000
0000
0000
0000
0000
0000
0000
0000
0000
0000
0000
0000
0000
0000
0000
0000
0000
0000
0000
0000
0000
ENDCHAR

STARTCHAR C8c
ENCODING 140
SWIDTH 1000 0
DWIDTH 13 0
BBX 13 26 0 -4
BITMAP
0000
0000
0000
0000
0000
0000
0000
0000
0000
0000
0000
0000
0000
0000
0000
0000
0000
0000
0000
0000
0000
0000
0000
0000
0000
0000
ENDCHAR

STARTCHAR C8d
ENCODING 141
SWIDTH 1000 0
DWIDTH 13 0
BBX 13 26 0 -4
BITMAP
0000
0000
0000
0000
0000
0000
0000
0000
0000
0000
0000
0000
0000
0000
0000
0000
0000
0000
0000
0000
0000
0000
0000
0000
0000
0000
ENDCHAR

STARTCHAR C8e
ENCODING 142
SWIDTH 1000 0
DWIDTH 13 0
BBX 13 26 0 -4
BITMAP
0000
0000
0000
0000
0000
0000
0000
0000
0000
0000
0000
0000
0000
0000
0000
0000
0000
0000
0000
0000
0000
0000
0000
0000
0000
0000
ENDCHAR

STARTCHAR C8f
ENCODING 143
SWIDTH 1000 0
DWIDTH 13 0
BBX 13 26 0 -4
BITMAP
0000
0000
0000
0000
0000
0000
0000
0000
0000
0000
0000
0000
0000
0000
0000
0000
0000
0000
0000
0000
0000
0000
0000
0000
0000
0000
ENDCHAR

STARTCHAR C90
ENCODING 144
SWIDTH 1000 0
DWIDTH 13 0
BBX 13 26 0 -4
BITMAP
0000
0000
0000
0000
0000
0000
0000
0000
0000
0000
0000
0000
0000
0000
0000
0000
0000
0000
0000
0000
0000
0000
0000
0000
0000
0000
ENDCHAR

STARTCHAR C91
ENCODING 145
SWIDTH 1000 0
DWIDTH 13 0
BBX 13 26 0 -4
BITMAP
0000
0000
0000
0000
0000
0000
0000
0000
0000
0000
0000
0000
0000
0000
0000
0000
0000
0000
0000
0000
0000
0000
0000
0000
0000
0000
ENDCHAR

STARTCHAR C92
ENCODING 146
SWIDTH 1000 0
DWIDTH 13 0
BBX 13 26 0 -4
BITMAP
0000
0000
0000
0000
0000
0000
0000
0000
0000
0000
0000
0000
0000
0000
0000
0000
0000
0000
0000
0000
0000
0000
0000
0000
0000
0000
ENDCHAR

STARTCHAR C93
ENCODING 147
SWIDTH 1000 0
DWIDTH 13 0
BBX 13 26 0 -4
BITMAP
0000
0000
0000
0000
0000
0000
0000
0000
0000
0000
0000
0000
0000
0000
0000
0000
0000
0000
0000
0000
0000
0000
0000
0000
0000
0000
ENDCHAR

STARTCHAR C94
ENCODING 148
SWIDTH 1000 0
DWIDTH 13 0
BBX 13 26 0 -4
BITMAP
0000
0000
0000
0000
0000
0000
0000
0000
0000
0000
0000
0000
0000
0000
0000
0000
0000
0000
0000
0000
0000
0000
0000
0000
0000
0000
ENDCHAR

STARTCHAR C95
ENCODING 149
SWIDTH 1000 0
DWIDTH 13 0
BBX 13 26 0 -4
BITMAP
0000
0000
0000
0000
0000
0000
0000
0000
0000
0000
0000
0000
0000
0000
0000
0000
0000
0000
0000
0000
0000
0000
0000
0000
0000
0000
ENDCHAR

STARTCHAR C96
ENCODING 150
SWIDTH 1000 0
DWIDTH 13 0
BBX 13 26 0 -4
BITMAP
0000
0000
0000
0000
0000
0000
0000
0000
0000
0000
0000
0000
0000
0000
0000
0000
0000
0000
0000
0000
0000
0000
0000
0000
0000
0000
ENDCHAR

STARTCHAR C97
ENCODING 151
SWIDTH 1000 0
DWIDTH 13 0
BBX 13 26 0 -4
BITMAP
0000
0000
0000
0000
0000
0000
0000
0000
0000
0000
0000
0000
0000
0000
0000
0000
0000
0000
0000
0000
0000
0000
0000
0000
0000
0000
ENDCHAR

STARTCHAR C98
ENCODING 152
SWIDTH 1000 0
DWIDTH 13 0
BBX 13 26 0 -4
BITMAP
0000
0000
0000
0000
0000
0000
0000
0000
0000
0000
0000
0000
0000
0000
0000
0000
0000
0000
0000
0000
0000
0000
0000
0000
0000
0000
ENDCHAR

STARTCHAR C99
ENCODING 153
SWIDTH 1000 0
DWIDTH 13 0
BBX 13 26 0 -4
BITMAP
0000
0000
0000
0000
0000
0000
0000
0000
0000
0000
0000
0000
0000
0000
0000
0000
0000
0000
0000
0000
0000
0000
0000
0000
0000
0000
ENDCHAR

STARTCHAR C9a
ENCODING 154
SWIDTH 1000 0
DWIDTH 13 0
BBX 13 26 0 -4
BITMAP
0000
0000
0000
0000
0000
0000
0000
0000
0000
0000
0000
0000
0000
0000
0000
0000
0000
0000
0000
0000
0000
0000
0000
0000
0000
0000
ENDCHAR

STARTCHAR C9b
ENCODING 155
SWIDTH 1000 0
DWIDTH 13 0
BBX 13 26 0 -4
BITMAP
0000
0000
0000
0000
0000
0000
0000
0000
0000
0000
0000
0000
0000
0000
0000
0000
0000
0000
0000
0000
0000
0000
0000
0000
0000
0000
ENDCHAR

STARTCHAR C9c
ENCODING 156
SWIDTH 1000 0
DWIDTH 13 0
BBX 13 26 0 -4
BITMAP
0000
0000
0000
0000
0000
0000
0000
0000
0000
0000
0000
0000
0000
0000
0000
0000
0000
0000
0000
0000
0000
0000
0000
0000
0000
0000
ENDCHAR

STARTCHAR C9d
ENCODING 157
SWIDTH 1000 0
DWIDTH 13 0
BBX 13 26 0 -4
BITMAP
0000
0000
0000
0000
0000
0000
0000
0000
0000
0000
0000
0000
0000
0000
0000
0000
0000
0000
0000
0000
0000
0000
0000
0000
0000
0000
ENDCHAR

STARTCHAR C9e
ENCODING 158
SWIDTH 1000 0
DWIDTH 13 0
BBX 13 26 0 -4
BITMAP
0000
0000
0000
0000
0000
0000
0000
0000
0000
0000
0000
0000
0000
0000
0000
0000
0000
0000
0000
0000
0000
0000
0000
0000
0000
0000
ENDCHAR

STARTCHAR C9f
ENCODING 159
SWIDTH 1000 0
DWIDTH 13 0
BBX 13 26 0 -4
BITMAP
0000
0000
0000
0000
0000
0000
0000
0000
0000
0000
0000
0000
0000
0000
0000
0000
0000
0000
0000
0000
0000
0000
0000
0000
0000
0000
ENDCHAR

STARTCHAR Ca0
ENCODING 160
SWIDTH 1000 0
DWIDTH 13 0
BBX 13 26 0 -4
BITMAP
0000
0000
0000
0000
0000
0000
0000
0000
0000
0000
0000
0000
0000
0000
0000
0000
0000
0000
0000
0000
0000
0000
0000
0000
0000
0000
ENDCHAR

STARTCHAR Ca1
ENCODING 161
SWIDTH 1000 0
DWIDTH 13 0
BBX 13 26 0 -4
BITMAP
0000
0000
0000
0400
0E00
0400
0000
0000
0400
0400
0400
0400
0400
0E00
0E00
0E00
0E00
0E00
0E00
0E00
0400
0000
0000
0000
0000
0000
ENDCHAR

STARTCHAR Ca2
ENCODING 162
SWIDTH 1000 0
DWIDTH 13 0
BBX 13 26 0 -4
BITMAP
0000
0000
0000
0000
0000
0000
0000
0100
0100
0F00
3180
22C0
62C0
6200
6400
6400
6400
6800
2840
3880
0F00
1000
1000
0000
0000
0000
ENDCHAR

STARTCHAR Ca3
ENCODING 163
SWIDTH 1000 0
DWIDTH 13 0
BBX 13 26 0 -4
BITMAP
0000
0000
0000
0000
0380
0440
0C60
0C60
0C00
0C00
0C00
0C00
7F80
0C00
0C00
0C00
0C00
0C00
3C20
4A20
31C0
0000
0000
0000
0000
0000
ENDCHAR

STARTCHAR Ca4
ENCODING 164
SWIDTH 1000 0
DWIDTH 13 0
BBX 13 26 0 -4
BITMAP
0000
0000
0000
0000
0000
0000
0000
0000
4040
2E80
1100
2080
2080
2080
1100
2E80
4040
0000
0000
0000
0000
0000
0000
0000
0000
0000
ENDCHAR

STARTCHAR Ca5
ENCODING 165
SWIDTH 1000 0
DWIDTH 13 0
BBX 13 26 0 -4
BITMAP
0000
0000
0000
0000
78E0
3040
3040
3040
1880
7FE0
1880
0D00
0D00
7FE0
0600
0600
0600
0600
0600
0600
0F00
0000
0000
0000
0000
0000
ENDCHAR

STARTCHAR Ca6
ENCODING 166
SWIDTH 1000 0
DWIDTH 13 0
BBX 13 26 0 -4
BITMAP
0000
0000
0000
0000
0600
0600
0600
0600
0600
0600
0600
0000
0000
0000
0600
0600
0600
0600
0600
0600
0600
0000
0000
0000
0000
0000
ENDCHAR

STARTCHAR Ca7
ENCODING 167
SWIDTH 1000 0
DWIDTH 13 0
BBX 13 26 0 -4
BITMAP
0000
0000
0000
0000
0F00
30C0
6060
6060
3800
0F00
31C0
4060
4020
6020
38C0
0F00
01C0
6060
6060
30C0
0F00
0000
0000
0000
0000
0000
ENDCHAR

STARTCHAR Ca8
ENCODING 168
SWIDTH 1000 0
DWIDTH 13 0
BBX 13 26 0 -4
BITMAP
0000
0000
1980
1980
0000
0000
0000
0000
0000
0000
0000
0000
0000
0000
0000
0000
0000
0000
0000
0000
0000
0000
0000
0000
0000
0000
ENDCHAR

STARTCHAR Ca9
ENCODING 169
SWIDTH 1000 0
DWIDTH 13 0
BBX 13 26 0 -4
BITMAP
0000
0000
0000
0000
0F00
1080
2040
4020
4720
48A0
5820
5820
5820
5820
5820
48A0
4720
4020
2040
1080
0F00
0000
0000
0000
0000
0000
ENDCHAR

STARTCHAR Caa
ENCODING 170
SWIDTH 1000 0
DWIDTH 13 0
BBX 13 26 0 -4
BITMAP
0000
0000
0000
0000
1E00
2100
6180
6180
0780
1980
3180
6180
6180
63A0
3CC0
0000
7FE0
0000
0000
0000
0000
0000
0000
0000
0000
0000
ENDCHAR

STARTCHAR Cab
ENCODING 171
SWIDTH 1000 0
DWIDTH 13 0
BBX 13 26 0 -4
BITMAP
0000
0000
0000
0000
0440
0440
0880
0880
1100
1100
2200
2200
4400
2200
2200
1100
1100
0880
0880
0440
0440
0000
0000
0000
0000
0000
ENDCHAR

STARTCHAR Cac
ENCODING 172
SWIDTH 1000 0
DWIDTH 13 0
BBX 13 26 0 -4
BITMAP
0000
0000
0000
0000
0000
0000
0000
0000
0000
0000
0000
7FE0
0020
0020
0020
0020
0000
0000
0000
0000
0000
0000
0000
0000
0000
0000
ENDCHAR

STARTCHAR Cad
ENCODING 173
SWIDTH 1000 0
DWIDTH 13 0
BBX 13 26 0 -4
BITMAP
0000
0000
0000
0000
0000
0000
0000
0000
0000
0000
0000
0000
3FC0
0000
0000
0000
0000
0000
0000
0000
0000
0000
0000
0000
0000
0000
ENDCHAR

STARTCHAR Cae
ENCODING 174
SWIDTH 1000 0
DWIDTH 13 0
BBX 13 26 0 -4
BITMAP
0000
0000
0000
0000
0F00
1080
2040
4020
5F20
59A0
59A0
59A0
5F20
5A20
5920
59A0
59A0
4020
2040
1080
0F00
0000
0000
0000
0000
0000
ENDCHAR

STARTCHAR Caf
ENCODING 175
SWIDTH 1000 0
DWIDTH 13 0
BBX 13 26 0 -4
BITMAP
0000
0000
7FE0
0000
0000
0000
0000
0000
0000
0000
0000
0000
0000
0000
0000
0000
0000
0000
0000
0000
0000
0000
0000
0000
0000
0000
ENDCHAR

STARTCHAR Cb0
ENCODING 176
SWIDTH 1000 0
DWIDTH 13 0
BBX 13 26 0 -4
BITMAP
0000
0000
0E00
1100
1100
1100
0E00
0000
0000
0000
0000
0000
0000
0000
0000
0000
0000
0000
0000
0000
0000
0000
0000
0000
0000
0000
ENDCHAR

STARTCHAR Cb1
ENCODING 177
SWIDTH 1000 0
DWIDTH 13 0
BBX 13 26 0 -4
BITMAP
0000
0000
0000
0000
0000
0400
0400
0400
0400
0400
0400
3FC0
0400
0400
0400
0400
0400
0400
0000
0000
3FC0
0000
0000
0000
0000
0000
ENDCHAR

STARTCHAR Cb2
ENCODING 178
SWIDTH 1000 0
DWIDTH 13 0
BBX 13 26 0 -4
BITMAP
0000
0000
3000
4800
4800
1000
2000
4800
7800
0000
0000
0000
0000
0000
0000
0000
0000
0000
0000
0000
0000
0000
0000
0000
0000
0000
ENDCHAR

STARTCHAR Cb3
ENCODING 179
SWIDTH 1000 0
DWIDTH 13 0
BBX 13 26 0 -4
BITMAP
0000
0000
3000
4800
0800
3000
0800
4800
3000
0000
0000
0000
0000
0000
0000
0000
0000
0000
0000
0000
0000
0000
0000
0000
0000
0000
ENDCHAR

STARTCHAR Cb4
ENCODING 180
SWIDTH 1000 0
DWIDTH 13 0
BBX 13 26 0 -4
BITMAP
0000
0000
0300
1F80
0000
0000
0000
0000
0000
0000
0000
0000
0000
0000
0000
0000
0000
0000
0000
0000
0000
0000
0000
0000
0000
0000
ENDCHAR

STARTCHAR Cb5
ENCODING 181
SWIDTH 1000 0
DWIDTH 13 0
BBX 13 26 0 -4
BITMAP
0000
0000
0000
0000
0000
0000
0000
0000
0000
0C60
0C60
0C60
0C60
0840
0840
18C0
18C0
1080
1080
31A0
2E60
2000
6000
6000
0000
0000
ENDCHAR

STARTCHAR Cb6
ENCODING 182
SWIDTH 1000 0
DWIDTH 13 0
BBX 13 26 0 -4
BITMAP
0000
0000
0000
0000
0FE0
36C0
26C0
66C0
66C0
66C0
26C0
36C0
0EC0
06C0
06C0
06C0
06C0
06C0
06C0
06C0
06C0
0000
0000
0000
0000
0000
ENDCHAR

STARTCHAR Cb7
ENCODING 183
SWIDTH 1000 0
DWIDTH 13 0
BBX 13 26 0 -4
BITMAP
0000
0000
0000
0000
0000
0000
0000
0000
0000
0000
0000
0600
0F00
0F00
0600
0000
0000
0000
0000
0000
0000
0000
0000
0000
0000
0000
ENDCHAR

STARTCHAR Cb8
ENCODING 184
SWIDTH 1000 0
DWIDTH 13 0
BBX 13 26 0 -4
BITMAP
0000
0000
0000
0000
0000
0000
0000
0000
0000
0000
0000
0000
0000
0000
0000
0000
0000
0000
0000
0000
0200
0300
0080
0F00
0000
0000
ENDCHAR

STARTCHAR Cb9
ENCODING 185
SWIDTH 1000 0
DWIDTH 13 0
BBX 13 26 0 -4
BITMAP
0000
0000
2000
6000
2000
2000
2000
2000
7000
0000
0000
0000
0000
0000
0000
0000
0000
0000
0000
0000
0000
0000
0000
0000
0000
0000
ENDCHAR

STARTCHAR Cba
ENCODING 186
SWIDTH 1000 0
DWIDTH 13 0
BBX 13 26 0 -4
BITMAP
0000
0000
0000
0000
0F00
30C0
2040
6060
6060
6060
6060
6060
2040
30C0
0F00
0000
7FE0
0000
0000
0000
0000
0000
0000
0000
0000
0000
ENDCHAR

STARTCHAR Cbb
ENCODING 187
SWIDTH 1000 0
DWIDTH 13 0
BBX 13 26 0 -4
BITMAP
0000
0000
0000
0000
4400
4400
2200
2200
1100
1100
0880
0880
0440
0880
0880
1100
1100
2200
2200
4400
4400
0000
0000
0000
0000
0000
ENDCHAR

STARTCHAR Cbc
ENCODING 188
SWIDTH 1000 0
DWIDTH 13 0
BBX 13 26 0 -4
BITMAP
0000
0000
0000
0000
1020
3020
1040
1040
1080
1100
3900
0200
0400
0400
0840
08C0
1140
2240
23E0
4040
4040
0000
0000
0000
0000
0000
ENDCHAR

STARTCHAR Cbd
ENCODING 189
SWIDTH 1000 0
DWIDTH 13 0
BBX 13 26 0 -4
BITMAP
0000
0000
0000
0000
1020
3020
1040
1040
1080
1100
3900
0200
0400
0400
08C0
0920
1120
2040
2080
4120
41E0
0000
0000
0000
0000
0000
ENDCHAR

STARTCHAR Cbe
ENCODING 190
SWIDTH 1000 0
DWIDTH 13 0
BBX 13 26 0 -4
BITMAP
0000
0000
0000
0000
3020
4820
0840
3040
0880
4900
3100
0200
0400
0400
0840
08C0
1140
2240
23E0
4040
4040
0000
0000
0000
0000
0000
ENDCHAR

STARTCHAR Cbf
ENCODING 191
SWIDTH 1000 0
DWIDTH 13 0
BBX 13 26 0 -4
BITMAP
0000
0000
0000
0000
0400
0E00
0400
0000
0000
0400
0400
0400
0C00
1800
3000
60C0
60E0
6060
6060
30C0
0F00
0000
0000
0000
0000
0000
ENDCHAR

STARTCHAR Cc0
ENCODING 192
SWIDTH 1000 0
DWIDTH 13 0
BBX 13 26 0 -4
BITMAP
0000
0000
0C00
1F80
0000
0600
0600
0600
0B00
0B00
0B00
0B00
1180
1180
1180
1F80
20C0
20C0
20C0
20C0
71E0
0000
0000
0000
0000
0000
ENDCHAR

STARTCHAR Cc1
ENCODING 193
SWIDTH 1000 0
DWIDTH 13 0
BBX 13 26 0 -4
BITMAP
0000
0000
0300
1F80
0000
0600
0600
0600
0B00
0B00
0B00
0B00
1180
1180
1180
1F80
20C0
20C0
20C0
20C0
71E0
0000
0000
0000
0000
0000
ENDCHAR

STARTCHAR Cc2
ENCODING 194
SWIDTH 1000 0
DWIDTH 13 0
BBX 13 26 0 -4
BITMAP
0000
0000
0600
1980
0000
0600
0600
0600
0B00
0B00
0B00
0B00
1180
1180
1180
1F80
20C0
20C0
20C0
20C0
71E0
0000
0000
0000
0000
0000
ENDCHAR

STARTCHAR Cc3
ENCODING 195
SWIDTH 1000 0
DWIDTH 13 0
BBX 13 26 0 -4
BITMAP
0000
0000
0C80
1300
0000
0600
0600
0600
0B00
0B00
0B00
0B00
1180
1180
1180
1F80
20C0
20C0
20C0
20C0
71E0
0000
0000
0000
0000
0000
ENDCHAR

STARTCHAR Cc4
ENCODING 196
SWIDTH 1000 0
DWIDTH 13 0
BBX 13 26 0 -4
BITMAP
0000
0000
1980
1980
0000
0600
0600
0600
0B00
0B00
0B00
0B00
1180
1180
1180
1F80
20C0
20C0
20C0
20C0
71E0
0000
0000
0000
0000
0000
ENDCHAR

STARTCHAR Cc5
ENCODING 197
SWIDTH 1000 0
DWIDTH 13 0
BBX 13 26 0 -4
BITMAP
0000
0000
0600
0900
0600
0000
0600
0600
0600
0B00
0B00
0B00
1180
1180
1180
1F80
20C0
20C0
20C0
20C0
71E0
0000
0000
0000
0000
0000
ENDCHAR

STARTCHAR Cc6
ENCODING 198
SWIDTH 1000 0
DWIDTH 13 0
BBX 13 26 0 -4
BITMAP
0000
0000
0000
0000
07E0
0720
0720
0700
0B00
0B00
0B40
0B40
13C0
1340
1340
1F00
2300
2300
2320
2320
73E0
0000
0000
0000
0000
0000
ENDCHAR

STARTCHAR Cc7
ENCODING 199
SWIDTH 1000 0
DWIDTH 13 0
BBX 13 26 0 -4
BITMAP
0000
0000
0000
0000
0720
18A0
1060
3020
2020
6000
6000
6000
6000
6000
6000
2000
3020
1020
1840
0780
0100
0180
0040
0780
0000
0000
ENDCHAR

STARTCHAR Cc8
ENCODING 200
SWIDTH 1000 0
DWIDTH 13 0
BBX 13 26 0 -4
BITMAP
0000
0000
0C00
1F80
0000
7FC0
3040
3020
3000
3000
3100
3100
3F00
3100
3100
3000
3000
3000
3020
3040
7FC0
0000
0000
0000
0000
0000
ENDCHAR

STARTCHAR Cc9
ENCODING 201
SWIDTH 1000 0
DWIDTH 13 0
BBX 13 26 0 -4
BITMAP
0000
0000
0300
1F80
0000
7FC0
3040
3020
3000
3000
3100
3100
3F00
3100
3100
3000
3000
3000
3020
3040
7FC0
0000
0000
0000
0000
0000
ENDCHAR

STARTCHAR Cca
ENCODING 202
SWIDTH 1000 0
DWIDTH 13 0
BBX 13 26 0 -4
BITMAP
0000
0000
0600
1980
0000
7FC0
3040
3020
3000
3000
3100
3100
3F00
3100
3100
3000
3000
3000
3020
3040
7FC0
0000
0000
0000
0000
0000
ENDCHAR

STARTCHAR Ccb
ENCODING 203
SWIDTH 1000 0
DWIDTH 13 0
BBX 13 26 0 -4
BITMAP
0000
0000
1980
1980
0000
7FC0
3040
3020
3000
3000
3100
3100
3F00
3100
3100
3000
3000
3000
3020
3040
7FC0
0000
0000
0000
0000
0000
ENDCHAR

STARTCHAR Ccc
ENCODING 204
SWIDTH 1000 0
DWIDTH 13 0
BBX 13 26 0 -4
BITMAP
0000
0000
0C00
1F80
0000
1F80
0600
0600
0600
0600
0600
0600
0600
0600
0600
0600
0600
0600
0600
0600
1F80
0000
0000
0000
0000
0000
ENDCHAR

STARTCHAR Ccd
ENCODING 205
SWIDTH 1000 0
DWIDTH 13 0
BBX 13 26 0 -4
BITMAP
0000
0000
0300
1F80
0000
1F80
0600
0600
0600
0600
0600
0600
0600
0600
0600
0600
0600
0600
0600
0600
1F80
0000
0000
0000
0000
0000
ENDCHAR

STARTCHAR Cce
ENCODING 206
SWIDTH 1000 0
DWIDTH 13 0
BBX 13 26 0 -4
BITMAP
0000
0000
0600
1980
0000
1F80
0600
0600
0600
0600
0600
0600
0600
0600
0600
0600
0600
0600
0600
0600
1F80
0000
0000
0000
0000
0000
ENDCHAR

STARTCHAR Ccf
ENCODING 207
SWIDTH 1000 0
DWIDTH 13 0
BBX 13 26 0 -4
BITMAP
0000
0000
1980
1980
0000
1F80
0600
0600
0600
0600
0600
0600
0600
0600
0600
0600
0600
0600
0600
0600
1F80
0000
0000
0000
0000
0000
ENDCHAR

STARTCHAR Cd0
ENCODING 208
SWIDTH 1000 0
DWIDTH 13 0
BBX 13 26 0 -4
BITMAP
0000
0000
0000
0000
7E00
3180
3080
30C0
3040
3060
3060
3060
7E60
3060
3060
3060
3040
30C0
3080
3180
7E00
0000
0000
0000
0000
0000
ENDCHAR

STARTCHAR Cd1
ENCODING 209
SWIDTH 1000 0
DWIDTH 13 0
BBX 13 26 0 -4
BITMAP
0000
0000
0C80
1300
0000
70E0
3040
3840
3840
2C40
2C40
2640
2640
2340
2340
21C0
21C0
20C0
20C0
2040
7040
0000
0000
0000
0000
0000
ENDCHAR

STARTCHAR Cd2
ENCODING 210
SWIDTH 1000 0
DWIDTH 13 0
BBX 13 26 0 -4
BITMAP
0000
0000
0C00
1F80
0000
0F00
1080
30C0
2040
6060
6060
6060
6060
6060
6060
6060
6060
2040
30C0
1080
0F00
0000
0000
0000
0000
0000
ENDCHAR

STARTCHAR Cd3
ENCODING 211
SWIDTH 1000 0
DWIDTH 13 0
BBX 13 26 0 -4
BITMAP
0000
0000
0300
1F80
0000
0F00
1080
30C0
2040
6060
6060
6060
6060
6060
6060
6060
6060
2040
30C0
1080
0F00
0000
0000
0000
0000
0000
ENDCHAR

STARTCHAR Cd4
ENCODING 212
SWIDTH 1000 0
DWIDTH 13 0
BBX 13 26 0 -4
BITMAP
0000
0000
0600
1980
0000
0F00
1080
30C0
2040
6060
6060
6060
6060
6060
6060
6060
6060
2040
30C0
1080
0F00
0000
0000
0000
0000
0000
ENDCHAR

STARTCHAR Cd5
ENCODING 213
SWIDTH 1000 0
DWIDTH 13 0
BBX 13 26 0 -4
BITMAP
0000
0000
0C80
1300
0000
0F00
1080
30C0
2040
6060
6060
6060
6060
6060
6060
6060
6060
2040
30C0
1080
0F00
0000
0000
0000
0000
0000
ENDCHAR

STARTCHAR Cd6
ENCODING 214
SWIDTH 1000 0
DWIDTH 13 0
BBX 13 26 0 -4
BITMAP
0000
0000
1980
1980
0000
0F00
1080
30C0
2040
6060
6060
6060
6060
6060
6060
6060
6060
2040
30C0
1080
0F00
0000
0000
0000
0000
0000
ENDCHAR

STARTCHAR Cd7
ENCODING 215
SWIDTH 1000 0
DWIDTH 13 0
BBX 13 26 0 -4
BITMAP
0000
0000
0000
0000
0000
0000
0000
4020
6060
30C0
1980
0D00
0600
0600
0B00
1980
30C0
6060
4020
0000
0000
0000
0000
0000
0000
0000
ENDCHAR

STARTCHAR Cd8
ENCODING 216
SWIDTH 1000 0
DWIDTH 13 0
BBX 13 26 0 -4
BITMAP
0000
0000
0000
0080
0080
0F00
1180
2140
2140
6260
6260
6260
6260
6460
6460
6460
2840
2840
1880
0F00
1000
1000
0000
0000
0000
0000
ENDCHAR

STARTCHAR Cd9
ENCODING 217
SWIDTH 1000 0
DWIDTH 13 0
BBX 13 26 0 -4
BITMAP
0000
0000
0C00
1F80
0000
78E0
3040
3040
3040
3040
3040
3040
3040
3040
3040
3040
3040
3040
1040
1880
0700
0000
0000
0000
0000
0000
ENDCHAR

STARTCHAR Cda
ENCODING 218
SWIDTH 1000 0
DWIDTH 13 0
BBX 13 26 0 -4
BITMAP
0000
0000
0300
1F80
0000
78E0
3040
3040
3040
3040
3040
3040
3040
3040
3040
3040
3040
3040
1040
1880
0700
0000
0000
0000
0000
0000
ENDCHAR

STARTCHAR Cdb
ENCODING 219
SWIDTH 1000 0
DWIDTH 13 0
BBX 13 26 0 -4
BITMAP
0000
0000
0600
1980
0000
78E0
3040
3040
3040
3040
3040
3040
3040
3040
3040
3040
3040
3040
1040
1880
0700
0000
0000
0000
0000
0000
ENDCHAR

STARTCHAR Cdc
ENCODING 220
SWIDTH 1000 0
DWIDTH 13 0
BBX 13 26 0 -4
BITMAP
0000
0000
1980
1980
0000
78E0
3040
3040
3040
3040
3040
3040
3040
3040
3040
3040
3040
3040
1040
1880
0700
0000
0000
0000
0000
0000
ENDCHAR

STARTCHAR Cdd
ENCODING 221
SWIDTH 1000 0
DWIDTH 13 0
BBX 13 26 0 -4
BITMAP
0000
0000
0300
1F80
0000
78E0
3040
3040
1880
1880
1880
0D00
0D00
0D00
0600
0600
0600
0600
0600
0600
0F00
0000
0000
0000
0000
0000
ENDCHAR

STARTCHAR Cde
ENCODING 222
SWIDTH 1000 0
DWIDTH 13 0
BBX 13 26 0 -4
BITMAP
0000
0000
0000
0000
7800
3000
3000
3F00
30C0
3060
3060
3060
3060
3060
30C0
3F00
3000
3000
3000
3000
7800
0000
0000
0000
0000
0000
ENDCHAR

STARTCHAR Cdf
ENCODING 223
SWIDTH 1000 0
DWIDTH 13 0
BBX 13 26 0 -4
BITMAP
0000
0000
0000
0000
0300
0C80
08C0
18C0
18C0
18C0
1880
3100
3300
30C0
3040
3060
3060
3060
3060
68C0
6700
6000
6000
6000
0000
0000
ENDCHAR

STARTCHAR Ce0
ENCODING 224
SWIDTH 1000 0
DWIDTH 13 0
BBX 13 26 0 -4
BITMAP
0000
0000
0000
0000
0000
0000
1800
3F00
0000
1E00
2100
6180
6180
0180
0780
1980
3180
6180
6180
63A0
3CC0
0000
0000
0000
0000
0000
ENDCHAR

STARTCHAR Ce1
ENCODING 225
SWIDTH 1000 0
DWIDTH 13 0
BBX 13 26 0 -4
BITMAP
0000
0000
0000
0000
0000
0000
0600
3F00
0000
1E00
2100
6180
6180
0180
0780
1980
3180
6180
6180
63A0
3CC0
0000
0000
0000
0000
0000
ENDCHAR

STARTCHAR Ce2
ENCODING 226
SWIDTH 1000 0
DWIDTH 13 0
BBX 13 26 0 -4
BITMAP
0000
0000
0000
0000
0000
0000
0C00
3300
0000
1E00
2100
6180
6180
0180
0780
1980
3180
6180
6180
63A0
3CC0
0000
0000
0000
0000
0000
ENDCHAR

STARTCHAR Ce3
ENCODING 227
SWIDTH 1000 0
DWIDTH 13 0
BBX 13 26 0 -4
BITMAP
0000
0000
0000
0000
0000
0000
1900
2600
0000
1E00
2100
6180
6180
0180
0780
1980
3180
6180
6180
63A0
3CC0
0000
0000
0000
0000
0000
ENDCHAR

STARTCHAR Ce4
ENCODING 228
SWIDTH 1000 0
DWIDTH 13 0
BBX 13 26 0 -4
BITMAP
0000
0000
0000
0000
0000
0000
3300
3300
0000
1E00
2100
6180
6180
0180
0780
1980
3180
6180
6180
63A0
3CC0
0000
0000
0000
0000
0000
ENDCHAR

STARTCHAR Ce5
ENCODING 229
SWIDTH 1000 0
DWIDTH 13 0
BBX 13 26 0 -4
BITMAP
0000
0000
0000
0000
0000
0000
0C00
1200
0C00
0000
1E00
2100
6180
6180
0780
1980
3180
6180
6180
63A0
3CC0
0000
0000
0000
0000
0000
ENDCHAR

STARTCHAR Ce6
ENCODING 230
SWIDTH 1000 0
DWIDTH 13 0
BBX 13 26 0 -4
BITMAP
0000
0000
0000
0000
0000
0000
0000
0000
0000
1D80
2640
6660
6660
0660
0FE0
1600
2600
6600
6620
6620
39C0
0000
0000
0000
0000
0000
ENDCHAR

STARTCHAR Ce7
ENCODING 231
SWIDTH 1000 0
DWIDTH 13 0
BBX 13 26 0 -4
BITMAP
0000
0000
0000
0000
0000
0000
0000
0000
0000
0F40
30C0
2040
6040
6000
6000
6000
6000
2040
3080
0F00
0200
0300
0080
0F00
0000
0000
ENDCHAR

STARTCHAR Ce8
ENCODING 232
SWIDTH 1000 0
DWIDTH 13 0
BBX 13 26 0 -4
BITMAP
0000
0000
0000
0000
0000
0000
0C00
1F80
0000
0E00
3180
2080
60C0
60C0
7FC0
6000
6000
6000
2040
3080
0F00
0000
0000
0000
0000
0000
ENDCHAR

STARTCHAR Ce9
ENCODING 233
SWIDTH 1000 0
DWIDTH 13 0
BBX 13 26 0 -4
BITMAP
0000
0000
0000
0000
0000
0000
0300
1F80
0000
0E00
3180
2080
60C0
60C0
7FC0
6000
6000
6000
2040
3080
0F00
0000
0000
0000
0000
0000
ENDCHAR

STARTCHAR Cea
ENCODING 234
SWIDTH 1000 0
DWIDTH 13 0
BBX 13 26 0 -4
BITMAP
0000
0000
0000
0000
0000
0000
0600
1980
0000
0E00
3180
2080
60C0
60C0
7FC0
6000
6000
6000
2040
3080
0F00
0000
0000
0000
0000
0000
ENDCHAR

STARTCHAR Ceb
ENCODING 235
SWIDTH 1000 0
DWIDTH 13 0
BBX 13 26 0 -4
BITMAP
0000
0000
0000
0000
0000
0000
1980
1980
0000
0E00
3180
2080
60C0
60C0
7FC0
6000
6000
6000
2040
3080
0F00
0000
0000
0000
0000
0000
ENDCHAR

STARTCHAR Cec
ENCODING 236
SWIDTH 1000 0
DWIDTH 13 0
BBX 13 26 0 -4
BITMAP
0000
0000
0000
0000
0000
0000
0C00
1F80
0000
1E00
0600
0600
0600
0600
0600
0600
0600
0600
0600
0600
1F80
0000
0000
0000
0000
0000
ENDCHAR

STARTCHAR Ced
ENCODING 237
SWIDTH 1000 0
DWIDTH 13 0
BBX 13 26 0 -4
BITMAP
0000
0000
0000
0000
0000
0000
0300
1F80
0000
1E00
0600
0600
0600
0600
0600
0600
0600
0600
0600
0600
1F80
0000
0000
0000
0000
0000
ENDCHAR

STARTCHAR Cee
ENCODING 238
SWIDTH 1000 0
DWIDTH 13 0
BBX 13 26 0 -4
BITMAP
0000
0000
0000
0000
0000
0000
0600
1980
0000
1E00
0600
0600
0600
0600
0600
0600
0600
0600
0600
0600
1F80
0000
0000
0000
0000
0000
ENDCHAR

STARTCHAR Cef
ENCODING 239
SWIDTH 1000 0
DWIDTH 13 0
BBX 13 26 0 -4
BITMAP
0000
0000
0000
0000
0000
0000
1980
1980
0000
1E00
0600
0600
0600
0600
0600
0600
0600
0600
0600
0600
1F80
0000
0000
0000
0000
0000
ENDCHAR

STARTCHAR Cf0
ENCODING 240
SWIDTH 1000 0
DWIDTH 13 0
BBX 13 26 0 -4
BITMAP
0000
0000
0000
0000
0000
0000
4100
3200
0C00
0B00
1180
00C0
00C0
0FE0
3060
6060
6060
6060
6060
30C0
0F00
0000
0000
0000
0000
0000
ENDCHAR

STARTCHAR Cf1
ENCODING 241
SWIDTH 1000 0
DWIDTH 13 0
BBX 13 26 0 -4
BITMAP
0000
0000
0000
0000
0000
0000
0C80
1300
0000
3700
7880
30C0
30C0
30C0
30C0
30C0
30C0
30C0
30C0
30C0
79E0
0000
0000
0000
0000
0000
ENDCHAR

STARTCHAR Cf2
ENCODING 242
SWIDTH 1000 0
DWIDTH 13 0
BBX 13 26 0 -4
BITMAP
0000
0000
0000
0000
0000
0000
0C00
1F80
0000
0F00
30C0
2040
6060
6060
6060
6060
6060
6060
2040
30C0
0F00
0000
0000
0000
0000
0000
ENDCHAR

STARTCHAR Cf3
ENCODING 243
SWIDTH 1000 0
DWIDTH 13 0
BBX 13 26 0 -4
BITMAP
0000
0000
0000
0000
0000
0000
0300
1F80
0000
0F00
30C0
2040
6060
6060
6060
6060
6060
6060
2040
30C0
0F00
0000
0000
0000
0000
0000
ENDCHAR

STARTCHAR Cf4
ENCODING 244
SWIDTH 1000 0
DWIDTH 13 0
BBX 13 26 0 -4
BITMAP
0000
0000
0000
0000
0000
0000
0600
1980
0000
0F00
30C0
2040
6060
6060
6060
6060
6060
6060
2040
30C0
0F00
0000
0000
0000
0000
0000
ENDCHAR

STARTCHAR Cf5
ENCODING 245
SWIDTH 1000 0
DWIDTH 13 0
BBX 13 26 0 -4
BITMAP
0000
0000
0000
0000
0000
0000
0C80
1300
0000
0F00
30C0
2040
6060
6060
6060
6060
6060
6060
2040
30C0
0F00
0000
0000
0000
0000
0000
ENDCHAR

STARTCHAR Cf6
ENCODING 246
SWIDTH 1000 0
DWIDTH 13 0
BBX 13 26 0 -4
BITMAP
0000
0000
0000
0000
0000
0000
1980
1980
0000
0F00
30C0
2040
6060
6060
6060
6060
6060
6060
2040
30C0
0F00
0000
0000
0000
0000
0000
ENDCHAR

STARTCHAR Cf7
ENCODING 247
SWIDTH 1000 0
DWIDTH 13 0
BBX 13 26 0 -4
BITMAP
0000
0000
0000
0000
0000
0000
0600
0600
0000
0000
0000
0000
3FC0
0000
0000
0000
0000
0600
0600
0000
0000
0000
0000
0000
0000
0000
ENDCHAR

STARTCHAR Cf8
ENCODING 248
SWIDTH 1000 0
DWIDTH 13 0
BBX 13 26 0 -4
BITMAP
0000
0000
0000
0000
0000
0000
0000
0080
0080
0F00
31C0
2140
6260
6260
6260
6460
6460
6460
2840
38C0
0F00
1000
1000
0000
0000
0000
ENDCHAR

STARTCHAR Cf9
ENCODING 249
SWIDTH 1000 0
DWIDTH 13 0
BBX 13 26 0 -4
BITMAP
0000
0000
0000
0000
0000
0000
0C00
1F80
0000
1040
71C0
30C0
30C0
30C0
30C0
30C0
30C0
30C0
30C0
11C0
0E60
0000
0000
0000
0000
0000
ENDCHAR

STARTCHAR Cfa
ENCODING 250
SWIDTH 1000 0
DWIDTH 13 0
BBX 13 26 0 -4
BITMAP
0000
0000
0000
0000
0000
0000
0300
1F80
0000
1040
71C0
30C0
30C0
30C0
30C0
30C0
30C0
30C0
30C0
11C0
0E60
0000
0000
0000
0000
0000
ENDCHAR

STARTCHAR Cfb
ENCODING 251
SWIDTH 1000 0
DWIDTH 13 0
BBX 13 26 0 -4
BITMAP
0000
0000
0000
0000
0000
0000
0600
1980
0000
1040
71C0
30C0
30C0
30C0
30C0
30C0
30C0
30C0
30C0
11C0
0E60
0000
0000
0000
0000
0000
ENDCHAR

STARTCHAR Cfc
ENCODING 252
SWIDTH 1000 0
DWIDTH 13 0
BBX 13 26 0 -4
BITMAP
0000
0000
0000
0000
0000
0000
1980
1980
0000
1040
71C0
30C0
30C0
30C0
30C0
30C0
30C0
30C0
30C0
11C0
0E60
0000
0000
0000
0000
0000
ENDCHAR

STARTCHAR Cfd
ENCODING 253
SWIDTH 1000 0
DWIDTH 13 0
BBX 13 26 0 -4
BITMAP
0000
0000
0000
0000
0000
0000
0300
1F80
0000
78E0
3040
3040
3040
1880
1880
1880
0D00
0D00
0D00
0600
0600
6400
6400
3800
0000
0000
ENDCHAR

STARTCHAR Cfe
ENCODING 254
SWIDTH 1000 0
DWIDTH 13 0
BBX 13 26 0 -4
BITMAP
0000
0000
0000
0000
0000
0000
0000
0000
0000
3000
3000
3F00
30C0
3060
3060
3060
3060
30C0
3F00
3000
3000
3000
3000
3000
0000
0000
ENDCHAR

STARTCHAR Cff
ENCODING 255
SWIDTH 1000 0
DWIDTH 13 0
BBX 13 26 0 -4
BITMAP
0000
0000
0000
0000
0000
0000
1980
1980
0000
78E0
3040
3040
3040
1880
1880
1880
0D00
0D00
0D00
0608
0600
6400
6400
3800
0000
0000
ENDCHAR
ENDFONT
